<mxfile host="app.diagrams.net" modified="2021-01-04T15:57:44.541Z" agent="5.0 (Windows NT 6.1; Win64; x64) AppleWebKit/537.36 (KHTML, like Gecko) Chrome/87.0.4280.88 Safari/537.36" etag="kqzDF_mKM6GsTIrVvfLv" version="14.1.8" type="github">
  <diagram id="p0QsbGa7kpk_KF5rjv9a" name="Page-1">
    <mxGraphModel dx="1102" dy="582" grid="1" gridSize="10" guides="1" tooltips="1" connect="1" arrows="1" fold="1" page="1" pageScale="1" pageWidth="1169" pageHeight="827" math="0" shadow="0">
      <root>
        <mxCell id="0" />
        <mxCell id="1" parent="0" />
        <mxCell id="ecY-OT6J5S6hQM7kMvik-1" value="" style="verticalLabelPosition=bottom;verticalAlign=top;html=1;shadow=0;dashed=0;strokeWidth=1;shape=mxgraph.ios.iBgFlat;strokeColor=#18211b;" vertex="1" parent="1">
          <mxGeometry x="60" y="30" width="175" height="280" as="geometry" />
        </mxCell>
        <mxCell id="ecY-OT6J5S6hQM7kMvik-2" value="넌 XXX을/를 알아?" style="rounded=0;whiteSpace=wrap;html=1;fillColor=#dae8fc;strokeColor=#6c8ebf;" vertex="1" parent="1">
          <mxGeometry x="60" y="30" width="175" height="30" as="geometry" />
        </mxCell>
        <mxCell id="ecY-OT6J5S6hQM7kMvik-10" value="XXX 알아보기" style="rounded=1;html=1;shadow=0;dashed=0;whiteSpace=wrap;fontSize=10;align=center;strokeColor=#666666;fontStyle=1;fontFamily=Helvetica;fontColor=#FFFFFF;fillColor=#303030;" vertex="1" parent="1">
          <mxGeometry x="87.5" y="130" width="120" height="30" as="geometry" />
        </mxCell>
        <mxCell id="ecY-OT6J5S6hQM7kMvik-12" value="&lt;font style=&quot;font-size: 12px&quot;&gt;당신의 이름을 입력하세요&lt;/font&gt;" style="html=1;shadow=0;dashed=0;shape=mxgraph.bootstrap.rrect;rSize=5;strokeColor=#CED4DA;strokeWidth=1;fillColor=#E9ECEF;fontColor=#505050;whiteSpace=wrap;align=left;verticalAlign=middle;spacingLeft=10;fontSize=14;" vertex="1" parent="1">
          <mxGeometry x="68.75" y="80" width="157.5" height="40" as="geometry" />
        </mxCell>
        <mxCell id="ecY-OT6J5S6hQM7kMvik-21" value="" style="html=1;shadow=0;dashed=0;shape=mxgraph.bootstrap.rrect;rSize=5;strokeColor=#5B646A;html=1;whiteSpace=wrap;fillColor=#6C767D;fontColor=#ffffff;verticalAlign=bottom;align=left;spacing=20;spacingBottom=0;fontSize=14;" vertex="1" parent="1">
          <mxGeometry x="69" y="171" width="160" height="130" as="geometry" />
        </mxCell>
        <mxCell id="ecY-OT6J5S6hQM7kMvik-22" value="XXX 친구들의 랭킹" style="html=1;shadow=0;dashed=0;shape=mxgraph.bootstrap.topButton;rSize=5;perimeter=none;whiteSpace=wrap;fillColor=#697279;strokeColor=#5B646A;fontColor=#ffffff;resizeWidth=1;fontSize=12;align=center;spacing=20;" vertex="1" parent="ecY-OT6J5S6hQM7kMvik-21">
          <mxGeometry width="160" height="20" relative="1" as="geometry" />
        </mxCell>
        <mxCell id="ecY-OT6J5S6hQM7kMvik-14" value="" style="html=1;shadow=0;dashed=0;shape=mxgraph.bootstrap.rrect;rSize=5;strokeColor=#DFDFDF;html=1;whiteSpace=wrap;fillColor=#FFFFFF;fontColor=#000000;" vertex="1" parent="ecY-OT6J5S6hQM7kMvik-21">
          <mxGeometry x="5" y="22.94" width="150" height="97.06" as="geometry" />
        </mxCell>
        <mxCell id="ecY-OT6J5S6hQM7kMvik-15" value="홍길동" style="strokeColor=inherit;fillColor=inherit;gradientColor=inherit;fontColor=inherit;html=1;shadow=0;dashed=0;shape=mxgraph.bootstrap.topButton;rSize=5;perimeter=none;whiteSpace=wrap;resizeWidth=1;align=left;spacing=10;" vertex="1" parent="ecY-OT6J5S6hQM7kMvik-14">
          <mxGeometry width="150" height="30" relative="1" as="geometry" />
        </mxCell>
        <mxCell id="ecY-OT6J5S6hQM7kMvik-16" value="9" style="strokeColor=inherit;fillColor=inherit;gradientColor=inherit;fontColor=inherit;html=1;shadow=0;dashed=0;shape=mxgraph.bootstrap.rrect;rSize=8;fillColor=#0085FC;strokeColor=none;fontColor=#ffffff;whiteSpace=wrap;" vertex="1" parent="ecY-OT6J5S6hQM7kMvik-15">
          <mxGeometry x="1" y="0.5" width="25" height="16" relative="1" as="geometry">
            <mxPoint x="-40" y="-8" as="offset" />
          </mxGeometry>
        </mxCell>
        <mxCell id="ecY-OT6J5S6hQM7kMvik-17" value="옥동자" style="strokeColor=inherit;fillColor=inherit;gradientColor=inherit;fontColor=inherit;html=1;shadow=0;dashed=0;perimeter=none;whiteSpace=wrap;resizeWidth=1;align=left;spacing=10;" vertex="1" parent="ecY-OT6J5S6hQM7kMvik-14">
          <mxGeometry width="150" height="30" relative="1" as="geometry">
            <mxPoint y="33.53" as="offset" />
          </mxGeometry>
        </mxCell>
        <mxCell id="ecY-OT6J5S6hQM7kMvik-18" value="2" style="strokeColor=inherit;fillColor=inherit;gradientColor=inherit;fontColor=inherit;html=1;shadow=0;dashed=0;shape=mxgraph.bootstrap.rrect;rSize=8;fillColor=#0085FC;strokeColor=none;fontColor=#ffffff;whiteSpace=wrap;" vertex="1" parent="ecY-OT6J5S6hQM7kMvik-17">
          <mxGeometry x="1" y="0.5" width="20" height="16" relative="1" as="geometry">
            <mxPoint x="-38" y="-8" as="offset" />
          </mxGeometry>
        </mxCell>
        <mxCell id="ecY-OT6J5S6hQM7kMvik-19" value="라라" style="strokeColor=inherit;fillColor=inherit;gradientColor=inherit;fontColor=inherit;html=1;shadow=0;dashed=0;shape=mxgraph.bootstrap.bottomButton;rSize=5;perimeter=none;whiteSpace=wrap;resizeWidth=1;resizeHeight=0;align=left;spacing=10;" vertex="1" parent="ecY-OT6J5S6hQM7kMvik-14">
          <mxGeometry y="1" width="150" height="29" relative="1" as="geometry">
            <mxPoint y="-30" as="offset" />
          </mxGeometry>
        </mxCell>
        <mxCell id="ecY-OT6J5S6hQM7kMvik-20" value="1" style="strokeColor=inherit;fillColor=inherit;gradientColor=inherit;fontColor=inherit;html=1;shadow=0;dashed=0;shape=mxgraph.bootstrap.rrect;rSize=8;fillColor=#0085FC;strokeColor=none;fontColor=#ffffff;whiteSpace=wrap;" vertex="1" parent="ecY-OT6J5S6hQM7kMvik-19">
          <mxGeometry x="1" y="0.5" width="20" height="16" relative="1" as="geometry">
            <mxPoint x="-38" y="-8" as="offset" />
          </mxGeometry>
        </mxCell>
      </root>
    </mxGraphModel>
  </diagram>
</mxfile>
